<mxfile host="Electron" agent="Mozilla/5.0 (Windows NT 10.0; Win64; x64) AppleWebKit/537.36 (KHTML, like Gecko) draw.io/27.0.9 Chrome/134.0.6998.205 Electron/35.4.0 Safari/537.36" version="27.0.9">
  <diagram name="Page-1" id="cqYkRvKX6oYsvRRNOynM">
    <mxGraphModel dx="872" dy="577" grid="1" gridSize="10" guides="1" tooltips="1" connect="1" arrows="1" fold="1" page="1" pageScale="1" pageWidth="850" pageHeight="1100" math="0" shadow="0">
      <root>
        <mxCell id="0" />
        <mxCell id="1" parent="0" />
        <mxCell id="w49eikRocIXQb2qHq2ld-25" value="" style="rounded=0;whiteSpace=wrap;html=1;shadow=1;" vertex="1" parent="1">
          <mxGeometry x="40" y="80" width="400" height="360" as="geometry" />
        </mxCell>
        <mxCell id="w49eikRocIXQb2qHq2ld-1" value="&lt;font style=&quot;font-size: 18px;&quot;&gt;Register&lt;/font&gt;" style="text;html=1;align=center;verticalAlign=middle;whiteSpace=wrap;rounded=0;" vertex="1" parent="1">
          <mxGeometry x="80" y="80" width="80" height="40" as="geometry" />
        </mxCell>
        <mxCell id="w49eikRocIXQb2qHq2ld-8" style="edgeStyle=orthogonalEdgeStyle;rounded=0;orthogonalLoop=1;jettySize=auto;html=1;entryX=0;entryY=0.5;entryDx=0;entryDy=0;" edge="1" parent="1" source="w49eikRocIXQb2qHq2ld-4" target="w49eikRocIXQb2qHq2ld-5">
          <mxGeometry relative="1" as="geometry" />
        </mxCell>
        <mxCell id="w49eikRocIXQb2qHq2ld-4" value="&lt;font style=&quot;font-size: 14px;&quot;&gt;input form&lt;/font&gt;" style="text;html=1;align=center;verticalAlign=middle;whiteSpace=wrap;rounded=0;" vertex="1" parent="1">
          <mxGeometry x="80" y="120" width="80" height="40" as="geometry" />
        </mxCell>
        <mxCell id="w49eikRocIXQb2qHq2ld-9" style="edgeStyle=orthogonalEdgeStyle;rounded=0;orthogonalLoop=1;jettySize=auto;html=1;entryX=0;entryY=0.5;entryDx=0;entryDy=0;" edge="1" parent="1" source="w49eikRocIXQb2qHq2ld-5" target="w49eikRocIXQb2qHq2ld-6">
          <mxGeometry relative="1" as="geometry" />
        </mxCell>
        <mxCell id="w49eikRocIXQb2qHq2ld-10" style="edgeStyle=orthogonalEdgeStyle;rounded=0;orthogonalLoop=1;jettySize=auto;html=1;entryX=0.5;entryY=1;entryDx=0;entryDy=0;" edge="1" parent="1" source="w49eikRocIXQb2qHq2ld-5" target="w49eikRocIXQb2qHq2ld-4">
          <mxGeometry relative="1" as="geometry">
            <Array as="points">
              <mxPoint x="240" y="180" />
              <mxPoint x="120" y="180" />
            </Array>
          </mxGeometry>
        </mxCell>
        <mxCell id="w49eikRocIXQb2qHq2ld-5" value="&lt;font style=&quot;font-size: 14px;&quot;&gt;server verify&lt;/font&gt;" style="text;html=1;align=center;verticalAlign=middle;whiteSpace=wrap;rounded=0;" vertex="1" parent="1">
          <mxGeometry x="200" y="120" width="80" height="40" as="geometry" />
        </mxCell>
        <mxCell id="w49eikRocIXQb2qHq2ld-6" value="&lt;font style=&quot;font-size: 14px;&quot;&gt;send otp to email&lt;/font&gt;" style="text;html=1;align=center;verticalAlign=middle;whiteSpace=wrap;rounded=0;" vertex="1" parent="1">
          <mxGeometry x="320" y="120" width="80" height="40" as="geometry" />
        </mxCell>
        <mxCell id="w49eikRocIXQb2qHq2ld-11" value="&lt;font style=&quot;font-size: 18px;&quot;&gt;Verify&lt;/font&gt;" style="text;html=1;align=center;verticalAlign=middle;whiteSpace=wrap;rounded=0;" vertex="1" parent="1">
          <mxGeometry x="80" y="200" width="80" height="40" as="geometry" />
        </mxCell>
        <mxCell id="w49eikRocIXQb2qHq2ld-15" style="edgeStyle=orthogonalEdgeStyle;rounded=0;orthogonalLoop=1;jettySize=auto;html=1;entryX=0;entryY=0.5;entryDx=0;entryDy=0;" edge="1" parent="1" source="w49eikRocIXQb2qHq2ld-12" target="w49eikRocIXQb2qHq2ld-13">
          <mxGeometry relative="1" as="geometry" />
        </mxCell>
        <mxCell id="w49eikRocIXQb2qHq2ld-12" value="&lt;font style=&quot;font-size: 14px;&quot;&gt;input otp&lt;/font&gt;" style="text;html=1;align=center;verticalAlign=middle;whiteSpace=wrap;rounded=0;" vertex="1" parent="1">
          <mxGeometry x="80" y="240" width="80" height="40" as="geometry" />
        </mxCell>
        <mxCell id="w49eikRocIXQb2qHq2ld-14" style="edgeStyle=orthogonalEdgeStyle;rounded=0;orthogonalLoop=1;jettySize=auto;html=1;entryX=0.5;entryY=1;entryDx=0;entryDy=0;exitX=0.5;exitY=1;exitDx=0;exitDy=0;" edge="1" parent="1" source="w49eikRocIXQb2qHq2ld-13" target="w49eikRocIXQb2qHq2ld-12">
          <mxGeometry relative="1" as="geometry" />
        </mxCell>
        <mxCell id="w49eikRocIXQb2qHq2ld-17" style="edgeStyle=orthogonalEdgeStyle;rounded=0;orthogonalLoop=1;jettySize=auto;html=1;entryX=0;entryY=0.5;entryDx=0;entryDy=0;" edge="1" parent="1" source="w49eikRocIXQb2qHq2ld-13" target="w49eikRocIXQb2qHq2ld-16">
          <mxGeometry relative="1" as="geometry" />
        </mxCell>
        <mxCell id="w49eikRocIXQb2qHq2ld-13" value="&lt;span style=&quot;font-size: 14px;&quot;&gt;server verify&lt;/span&gt;" style="text;html=1;align=center;verticalAlign=middle;whiteSpace=wrap;rounded=0;" vertex="1" parent="1">
          <mxGeometry x="200" y="240" width="80" height="40" as="geometry" />
        </mxCell>
        <mxCell id="w49eikRocIXQb2qHq2ld-16" value="&lt;span style=&quot;font-size: 14px;&quot;&gt;login&lt;/span&gt;" style="text;html=1;align=center;verticalAlign=middle;whiteSpace=wrap;rounded=0;" vertex="1" parent="1">
          <mxGeometry x="320" y="240" width="80" height="40" as="geometry" />
        </mxCell>
        <mxCell id="w49eikRocIXQb2qHq2ld-18" value="&lt;font style=&quot;font-size: 18px;&quot;&gt;Login&lt;/font&gt;" style="text;html=1;align=center;verticalAlign=middle;whiteSpace=wrap;rounded=0;" vertex="1" parent="1">
          <mxGeometry x="80" y="320" width="80" height="40" as="geometry" />
        </mxCell>
        <mxCell id="w49eikRocIXQb2qHq2ld-22" style="edgeStyle=orthogonalEdgeStyle;rounded=0;orthogonalLoop=1;jettySize=auto;html=1;entryX=0;entryY=0.5;entryDx=0;entryDy=0;" edge="1" parent="1" source="w49eikRocIXQb2qHq2ld-19" target="w49eikRocIXQb2qHq2ld-20">
          <mxGeometry relative="1" as="geometry" />
        </mxCell>
        <mxCell id="w49eikRocIXQb2qHq2ld-19" value="&lt;font style=&quot;font-size: 14px;&quot;&gt;input form&lt;/font&gt;" style="text;html=1;align=center;verticalAlign=middle;whiteSpace=wrap;rounded=0;" vertex="1" parent="1">
          <mxGeometry x="80" y="360" width="80" height="40" as="geometry" />
        </mxCell>
        <mxCell id="w49eikRocIXQb2qHq2ld-23" style="edgeStyle=orthogonalEdgeStyle;rounded=0;orthogonalLoop=1;jettySize=auto;html=1;entryX=0;entryY=0.5;entryDx=0;entryDy=0;" edge="1" parent="1" source="w49eikRocIXQb2qHq2ld-20" target="w49eikRocIXQb2qHq2ld-21">
          <mxGeometry relative="1" as="geometry" />
        </mxCell>
        <mxCell id="w49eikRocIXQb2qHq2ld-24" style="edgeStyle=orthogonalEdgeStyle;rounded=0;orthogonalLoop=1;jettySize=auto;html=1;entryX=0.5;entryY=1;entryDx=0;entryDy=0;exitX=0.5;exitY=1;exitDx=0;exitDy=0;" edge="1" parent="1" source="w49eikRocIXQb2qHq2ld-20" target="w49eikRocIXQb2qHq2ld-19">
          <mxGeometry relative="1" as="geometry" />
        </mxCell>
        <mxCell id="w49eikRocIXQb2qHq2ld-20" value="&lt;font style=&quot;font-size: 14px;&quot;&gt;server verify&lt;/font&gt;" style="text;html=1;align=center;verticalAlign=middle;whiteSpace=wrap;rounded=0;" vertex="1" parent="1">
          <mxGeometry x="200" y="360" width="80" height="40" as="geometry" />
        </mxCell>
        <mxCell id="w49eikRocIXQb2qHq2ld-21" value="&lt;font style=&quot;font-size: 14px;&quot;&gt;ok&lt;/font&gt;" style="text;html=1;align=center;verticalAlign=middle;whiteSpace=wrap;rounded=0;" vertex="1" parent="1">
          <mxGeometry x="320" y="360" width="80" height="40" as="geometry" />
        </mxCell>
        <mxCell id="w49eikRocIXQb2qHq2ld-26" value="" style="rounded=0;whiteSpace=wrap;html=1;shadow=1;" vertex="1" parent="1">
          <mxGeometry x="480" y="80" width="530" height="360" as="geometry" />
        </mxCell>
        <mxCell id="w49eikRocIXQb2qHq2ld-27" value="&lt;font style=&quot;font-size: 18px;&quot;&gt;Forgot-Password&lt;/font&gt;" style="text;html=1;align=center;verticalAlign=middle;whiteSpace=wrap;rounded=0;" vertex="1" parent="1">
          <mxGeometry x="520" y="80" width="140" height="40" as="geometry" />
        </mxCell>
        <mxCell id="w49eikRocIXQb2qHq2ld-28" style="edgeStyle=orthogonalEdgeStyle;rounded=0;orthogonalLoop=1;jettySize=auto;html=1;entryX=0;entryY=0.5;entryDx=0;entryDy=0;" edge="1" source="w49eikRocIXQb2qHq2ld-29" target="w49eikRocIXQb2qHq2ld-32" parent="1">
          <mxGeometry relative="1" as="geometry" />
        </mxCell>
        <mxCell id="w49eikRocIXQb2qHq2ld-29" value="&lt;font style=&quot;font-size: 14px;&quot;&gt;input username&lt;/font&gt;" style="text;html=1;align=center;verticalAlign=middle;whiteSpace=wrap;rounded=0;" vertex="1" parent="1">
          <mxGeometry x="520" y="120" width="80" height="40" as="geometry" />
        </mxCell>
        <mxCell id="w49eikRocIXQb2qHq2ld-30" style="edgeStyle=orthogonalEdgeStyle;rounded=0;orthogonalLoop=1;jettySize=auto;html=1;entryX=0;entryY=0.5;entryDx=0;entryDy=0;" edge="1" source="w49eikRocIXQb2qHq2ld-32" target="w49eikRocIXQb2qHq2ld-33" parent="1">
          <mxGeometry relative="1" as="geometry" />
        </mxCell>
        <mxCell id="w49eikRocIXQb2qHq2ld-31" style="edgeStyle=orthogonalEdgeStyle;rounded=0;orthogonalLoop=1;jettySize=auto;html=1;entryX=0.5;entryY=1;entryDx=0;entryDy=0;" edge="1" source="w49eikRocIXQb2qHq2ld-32" target="w49eikRocIXQb2qHq2ld-29" parent="1">
          <mxGeometry relative="1" as="geometry">
            <Array as="points">
              <mxPoint x="680" y="180" />
              <mxPoint x="560" y="180" />
            </Array>
          </mxGeometry>
        </mxCell>
        <mxCell id="w49eikRocIXQb2qHq2ld-32" value="&lt;font style=&quot;font-size: 14px;&quot;&gt;server verify&lt;/font&gt;" style="text;html=1;align=center;verticalAlign=middle;whiteSpace=wrap;rounded=0;" vertex="1" parent="1">
          <mxGeometry x="640" y="120" width="80" height="40" as="geometry" />
        </mxCell>
        <mxCell id="w49eikRocIXQb2qHq2ld-33" value="&lt;font style=&quot;font-size: 14px;&quot;&gt;send OTP to email&lt;/font&gt;" style="text;html=1;align=center;verticalAlign=middle;whiteSpace=wrap;rounded=0;" vertex="1" parent="1">
          <mxGeometry x="760" y="120" width="80" height="40" as="geometry" />
        </mxCell>
        <mxCell id="w49eikRocIXQb2qHq2ld-34" value="&lt;font style=&quot;font-size: 18px;&quot;&gt;Verify-Token&lt;/font&gt;" style="text;html=1;align=center;verticalAlign=middle;whiteSpace=wrap;rounded=0;" vertex="1" parent="1">
          <mxGeometry x="520" y="200" width="110" height="40" as="geometry" />
        </mxCell>
        <mxCell id="w49eikRocIXQb2qHq2ld-35" style="edgeStyle=orthogonalEdgeStyle;rounded=0;orthogonalLoop=1;jettySize=auto;html=1;entryX=0;entryY=0.5;entryDx=0;entryDy=0;" edge="1" source="w49eikRocIXQb2qHq2ld-36" target="w49eikRocIXQb2qHq2ld-39" parent="1">
          <mxGeometry relative="1" as="geometry" />
        </mxCell>
        <mxCell id="w49eikRocIXQb2qHq2ld-36" value="&lt;font style=&quot;font-size: 14px;&quot;&gt;input username and OTP&lt;/font&gt;" style="text;html=1;align=center;verticalAlign=middle;whiteSpace=wrap;rounded=0;" vertex="1" parent="1">
          <mxGeometry x="520" y="240" width="80" height="40" as="geometry" />
        </mxCell>
        <mxCell id="w49eikRocIXQb2qHq2ld-37" style="edgeStyle=orthogonalEdgeStyle;rounded=0;orthogonalLoop=1;jettySize=auto;html=1;entryX=0.5;entryY=1;entryDx=0;entryDy=0;exitX=0.5;exitY=1;exitDx=0;exitDy=0;" edge="1" source="w49eikRocIXQb2qHq2ld-39" target="w49eikRocIXQb2qHq2ld-36" parent="1">
          <mxGeometry relative="1" as="geometry" />
        </mxCell>
        <mxCell id="w49eikRocIXQb2qHq2ld-38" style="edgeStyle=orthogonalEdgeStyle;rounded=0;orthogonalLoop=1;jettySize=auto;html=1;entryX=0;entryY=0.5;entryDx=0;entryDy=0;" edge="1" source="w49eikRocIXQb2qHq2ld-39" target="w49eikRocIXQb2qHq2ld-40" parent="1">
          <mxGeometry relative="1" as="geometry" />
        </mxCell>
        <mxCell id="w49eikRocIXQb2qHq2ld-39" value="&lt;span style=&quot;font-size: 14px;&quot;&gt;server verify&lt;/span&gt;" style="text;html=1;align=center;verticalAlign=middle;whiteSpace=wrap;rounded=0;" vertex="1" parent="1">
          <mxGeometry x="640" y="240" width="80" height="40" as="geometry" />
        </mxCell>
        <mxCell id="w49eikRocIXQb2qHq2ld-49" style="edgeStyle=orthogonalEdgeStyle;rounded=0;orthogonalLoop=1;jettySize=auto;html=1;entryX=0;entryY=0.5;entryDx=0;entryDy=0;" edge="1" parent="1" source="w49eikRocIXQb2qHq2ld-40" target="w49eikRocIXQb2qHq2ld-48">
          <mxGeometry relative="1" as="geometry" />
        </mxCell>
        <mxCell id="w49eikRocIXQb2qHq2ld-40" value="&lt;span style=&quot;font-size: 14px;&quot;&gt;send token-session&lt;/span&gt;" style="text;html=1;align=center;verticalAlign=middle;whiteSpace=wrap;rounded=0;" vertex="1" parent="1">
          <mxGeometry x="760" y="240" width="80" height="40" as="geometry" />
        </mxCell>
        <mxCell id="w49eikRocIXQb2qHq2ld-41" value="&lt;font style=&quot;font-size: 18px;&quot;&gt;Reset-Password&lt;/font&gt;" style="text;html=1;align=center;verticalAlign=middle;whiteSpace=wrap;rounded=0;" vertex="1" parent="1">
          <mxGeometry x="520" y="320" width="140" height="40" as="geometry" />
        </mxCell>
        <mxCell id="w49eikRocIXQb2qHq2ld-42" style="edgeStyle=orthogonalEdgeStyle;rounded=0;orthogonalLoop=1;jettySize=auto;html=1;entryX=0;entryY=0.5;entryDx=0;entryDy=0;" edge="1" source="w49eikRocIXQb2qHq2ld-43" target="w49eikRocIXQb2qHq2ld-46" parent="1">
          <mxGeometry relative="1" as="geometry" />
        </mxCell>
        <mxCell id="w49eikRocIXQb2qHq2ld-43" value="&lt;font style=&quot;font-size: 14px;&quot;&gt;input new password&lt;/font&gt;" style="text;html=1;align=center;verticalAlign=middle;whiteSpace=wrap;rounded=0;" vertex="1" parent="1">
          <mxGeometry x="520" y="360" width="80" height="40" as="geometry" />
        </mxCell>
        <mxCell id="w49eikRocIXQb2qHq2ld-44" style="edgeStyle=orthogonalEdgeStyle;rounded=0;orthogonalLoop=1;jettySize=auto;html=1;entryX=0;entryY=0.5;entryDx=0;entryDy=0;" edge="1" source="w49eikRocIXQb2qHq2ld-46" target="w49eikRocIXQb2qHq2ld-47" parent="1">
          <mxGeometry relative="1" as="geometry" />
        </mxCell>
        <mxCell id="w49eikRocIXQb2qHq2ld-45" style="edgeStyle=orthogonalEdgeStyle;rounded=0;orthogonalLoop=1;jettySize=auto;html=1;entryX=0.5;entryY=1;entryDx=0;entryDy=0;exitX=0.5;exitY=1;exitDx=0;exitDy=0;" edge="1" source="w49eikRocIXQb2qHq2ld-46" target="w49eikRocIXQb2qHq2ld-43" parent="1">
          <mxGeometry relative="1" as="geometry" />
        </mxCell>
        <mxCell id="w49eikRocIXQb2qHq2ld-46" value="&lt;font style=&quot;font-size: 14px;&quot;&gt;server verify&lt;/font&gt;" style="text;html=1;align=center;verticalAlign=middle;whiteSpace=wrap;rounded=0;" vertex="1" parent="1">
          <mxGeometry x="640" y="360" width="80" height="40" as="geometry" />
        </mxCell>
        <mxCell id="w49eikRocIXQb2qHq2ld-51" style="edgeStyle=orthogonalEdgeStyle;rounded=0;orthogonalLoop=1;jettySize=auto;html=1;entryX=0;entryY=0.5;entryDx=0;entryDy=0;" edge="1" parent="1" source="w49eikRocIXQb2qHq2ld-47" target="w49eikRocIXQb2qHq2ld-50">
          <mxGeometry relative="1" as="geometry" />
        </mxCell>
        <mxCell id="w49eikRocIXQb2qHq2ld-47" value="&lt;font style=&quot;font-size: 14px;&quot;&gt;ok&lt;/font&gt;" style="text;html=1;align=center;verticalAlign=middle;whiteSpace=wrap;rounded=0;" vertex="1" parent="1">
          <mxGeometry x="760" y="360" width="80" height="40" as="geometry" />
        </mxCell>
        <mxCell id="w49eikRocIXQb2qHq2ld-48" value="&lt;span style=&quot;font-size: 14px;&quot;&gt;redirect&lt;/span&gt;" style="text;html=1;align=center;verticalAlign=middle;whiteSpace=wrap;rounded=0;" vertex="1" parent="1">
          <mxGeometry x="880" y="240" width="80" height="40" as="geometry" />
        </mxCell>
        <mxCell id="w49eikRocIXQb2qHq2ld-50" value="&lt;font style=&quot;font-size: 14px;&quot;&gt;login&lt;/font&gt;" style="text;html=1;align=center;verticalAlign=middle;whiteSpace=wrap;rounded=0;" vertex="1" parent="1">
          <mxGeometry x="880" y="360" width="80" height="40" as="geometry" />
        </mxCell>
      </root>
    </mxGraphModel>
  </diagram>
</mxfile>
